<?xml version="1.0" standalone="no"?>
<!DOCTYPE svg PUBLIC "-//W3C//DTD SVG 20010904//EN"
 "http://www.w3.org/TR/2001/REC-SVG-20010904/DTD/svg10.dtd">
<svg version="1.0" xmlns="http://www.w3.org/2000/svg"
 width="820.000000pt" height="700.000000pt" viewBox="0 0 820.000000 700.000000"
 preserveAspectRatio="xMidYMid meet">
<metadata>
Created by potrace 1.16, written by Peter Selinger 2001-2019
</metadata>
<g transform="translate(0.000000,700.000000) scale(0.100000,-0.100000)"
fill="#000000" stroke="none">
<path d="M4487 5788 c-11 -62 -6 -337 6 -345 6 -3 181 -8 389 -11 l378 -3 0
195 0 196 -384 0 -384 0 -5 -32z"/>
<path d="M2936 5418 c-8 -30 -8 -332 0 -352 5 -14 50 -16 395 -16 l389 0 0
195 0 195 -389 0 -389 0 -6 -22z"/>
<path d="M6030 4855 l0 -195 195 0 195 0 0 195 0 195 -195 0 -195 0 0 -195z"/>
<path d="M2555 4662 c-3 -3 -5 -92 -5 -199 l0 -193 195 0 195 0 -2 198 -3 197
-187 1 c-104 0 -190 -2 -193 -4z"/>
<path d="M3907 4663 l-197 -3 2 -388 3 -387 385 0 385 0 0 390 0 390 -190 0
c-104 1 -279 -1 -388 -2z"/>
<path d="M4872 4273 l3 -388 189 -3 c109 -1 194 2 199 7 6 6 6 156 2 390 l-8
381 -193 0 -194 0 2 -387z"/>
<path d="M1390 4086 c0 -166 2 -195 15 -200 24 -9 738 -7 753 2 9 7 12 53 10
198 l-3 189 -387 3 -388 2 0 -194z"/>
<path d="M2935 3511 c-4 -209 -4 -384 -1 -390 5 -7 73 -11 202 -11 l194 0 0
390 0 390 -194 0 -193 0 -8 -379z"/>
<path d="M6040 3695 l0 -195 195 0 195 0 0 195 0 195 -195 0 -195 0 0 -195z"/>
<path d="M3907 3113 l-197 -3 2 -193 3 -192 388 -3 387 -2 -2 197 -3 198 -190
0 c-104 1 -279 -1 -388 -2z"/>
<path d="M5273 3113 c-10 -3 -13 -53 -13 -199 l0 -194 195 0 195 0 -2 198 -3
197 -180 2 c-99 1 -186 -1 -192 -4z"/>
<path d="M1397 2823 c-4 -157 -7 -330 -7 -384 l0 -99 193 -2 192 -3 3 -192 2
-193 190 0 190 0 2 -192 3 -193 388 -3 387 -2 0 -190 0 -190 1160 0 1160 0 0
190 0 190 388 2 387 3 3 193 2 192 190 0 190 0 2 193 3 192 193 3 192 2 0 99
c0 54 -3 227 -7 384 l-6 287 -183 0 -184 0 -2 -192 -3 -193 -192 -3 -193 -2
-2 -193 -3 -192 -382 -3 -383 -2 0 -190 0 -190 -195 0 -195 0 0 195 0 195
-197 -2 -198 -3 -3 -193 -2 -192 -773 2 -772 3 4 388 3 387 -196 0 -196 0 0
-200 0 -200 -192 2 -193 3 -3 192 -2 193 -193 2 -192 3 -3 193 -2 192 -184 0
-183 0 -6 -287z"/>
</g>
</svg>
